<svg version="1.1" xmlns="http://www.w3.org/2000/svg" viewBox="0 0 353.36 83.56" class=""><title>Cleared</title><path d="M216.01,29.99c-5.45,0-10.52,1.64-14.76,4.44c0,0,0,0,0,0l0,0c-0.73-2.57-3.1-4.44-5.9-4.44c-3.39,0-6.14,2.75-6.14,6.13 v41.3c0,3.39,2.75,6.14,6.14,6.14c3.39,0,6.13-2.75,6.13-6.14V57.06v-0.3l0,0v0.3c0-0.09,0.01-0.19,0.01-0.28 c0-8.01,6.51-14.52,14.52-14.52c3.39,0,6.14-2.75,6.14-6.14S219.4,29.99,216.01,29.99z"></path><path d="M248.8,29.99c-13.26,0-24.29,9.68-26.42,22.34c-0.07,0.3-0.12,0.61-0.14,0.92c-0.15,1.15-0.23,2.33-0.23,3.52 c0,14.77,12.01,26.78,26.78,26.78c7.68,0,15-3.3,20.08-9.07c2.24-2.54,2-6.41-0.54-8.66c-1.17-1.03-2.62-1.54-4.06-1.54 c-1.7,0-3.39,0.7-4.6,2.07c-2.76,3.12-6.72,4.92-10.89,4.92c-6.96,0-12.78-4.91-14.19-11.45h34.61c1.78,0,3.48-0.78,4.65-2.13 c1.17-1.35,1.68-3.14,1.42-4.91C273.35,39.8,261.96,29.99,248.8,29.99 M237.58,47.57c2.66-3.24,6.7-5.31,11.22-5.31 c4.44,0,8.51,2.06,11.2,5.31H237.58z"></path><path d="M332.24,6.13c0-3.39-2.75-6.13-6.13-6.13c-3.39,0-6.13,2.75-6.13,6.13v28.14c-4.18-2.71-9.17-4.28-14.51-4.28 c-14.77,0-26.78,12.02-26.78,26.78c0,14.77,12.02,26.78,26.78,26.78c14.76,0,26.77-12,26.78-26.76c0-0.01,0-0.01,0-0.02V6.13z M305.46,71.29c-8.01,0-14.52-6.51-14.52-14.51c0-8.01,6.51-14.52,14.52-14.52c8,0,14.51,6.51,14.51,14.51v0.01c0,0,0,0,0,0 C319.97,64.78,313.46,71.29,305.46,71.29z"></path><path d="M345.89,68.47c-4.13,0-7.47,3.34-7.47,7.47c0,4.12,3.34,7.47,7.47,7.47c4.12,0,7.47-3.34,7.47-7.47 C353.35,71.81,350.01,68.47,345.89,68.47"></path><path d="M154.17,29.99c-7.68,0-15,3.3-20.09,9.06c-2.24,2.54-2,6.42,0.54,8.66c1.17,1.03,2.61,1.53,4.06,1.53 c1.7,0,3.39-0.7,4.6-2.08c2.76-3.12,6.73-4.92,10.89-4.92c6.95,0,12.78,4.91,14.19,11.45h-34.61c-1.78,0-3.48,0.78-4.64,2.13 c-1.17,1.35-1.69,3.14-1.42,4.91c1.94,13,13.33,22.81,26.49,22.81c13.26,0,24.29-9.68,26.41-22.34c0.07-0.3,0.11-0.61,0.14-0.92 c0.15-1.15,0.23-2.33,0.23-3.52C180.95,42.01,168.94,29.99,154.17,29.99 M154.17,71.29c-4.44,0-8.51-2.06-11.2-5.31h22.42 C162.72,69.22,158.68,71.29,154.17,71.29"></path><path d="M97.72,29.99c-13.26,0-24.29,9.68-26.41,22.34c-0.07,0.3-0.11,0.6-0.14,0.91c-0.15,1.15-0.23,2.33-0.23,3.53 c0,14.77,12.02,26.78,26.78,26.78c7.68,0,15-3.3,20.09-9.07c2.24-2.54,2-6.41-0.54-8.66c-1.17-1.03-2.62-1.54-4.06-1.54 c-1.7,0-3.39,0.7-4.6,2.07c-2.76,3.12-6.72,4.92-10.89,4.92c-6.95,0-12.78-4.91-14.19-11.45h34.61c1.78,0,3.48-0.78,4.65-2.13 c1.17-1.35,1.69-3.14,1.42-4.91C122.27,39.8,110.88,29.99,97.72,29.99 M86.5,47.57c2.66-3.24,6.7-5.31,11.22-5.31 c4.44,0,8.51,2.06,11.2,5.31H86.5z"></path><path d="M56.17,0c-3.39,0-6.14,2.75-6.14,6.13v70.05c0,3.39,2.75,6.13,6.14,6.13c3.39,0,6.14-2.75,6.14-6.13V6.13 C62.31,2.75,59.56,0,56.17,0"></path><path d="M26.78,29.99C12.01,29.99,0,42.01,0,56.78c0,14.77,12.02,26.78,26.78,26.78c4.15,0,8.12-0.92,11.82-2.74 c3.04-1.5,4.29-5.18,2.79-8.22c-1.07-2.17-3.24-3.42-5.51-3.42c-0.91,0-1.83,0.2-2.71,0.63c-2,0.98-4.15,1.48-6.4,1.48 c-8,0-14.52-6.51-14.52-14.51c0-8,6.51-14.52,14.52-14.52c2.25,0,4.4,0.5,6.4,1.48c0.87,0.43,1.8,0.63,2.71,0.63 c2.26,0,4.44-1.26,5.51-3.43c1.49-3.04,0.25-6.72-2.8-8.21C34.9,30.92,30.93,29.99,26.78,29.99"></path></svg>