<svg viewBox="0 0 120 120" fill="none" xmlns="http://www.w3.org/2000/svg">
<path d="M58.1935 109.593C82.8059 109.593 102.758 89.6404 102.758 65.0281C102.758 40.4158 82.8059 20.4635 58.1935 20.4635C33.5812 20.4635 13.6289 40.4158 13.6289 65.0281C13.6289 89.6404 33.5812 109.593 58.1935 109.593Z" fill="#FCD8CD"/>
<path d="M58.1933 110.557C33.1136 110.557 12.6641 90.1078 12.6641 65.0281C12.6641 39.9485 33.1136 19.4989 58.1933 19.4989C83.2729 19.4989 103.626 39.9485 103.626 65.0281C103.626 90.1078 83.2729 110.557 58.1933 110.557ZM58.1933 21.5246C34.1747 21.5246 14.5933 41.0095 14.5933 65.0281C14.5933 89.0467 34.1747 108.628 58.1933 108.628C82.2118 108.628 101.697 89.0467 101.697 65.0281C101.697 41.0095 82.2118 21.5246 58.1933 21.5246Z" fill="white"/>
<path fill-rule="evenodd" clip-rule="evenodd" d="M57.6132 10.6246L59.1566 7.92371H61.0858L58.4813 12.2644V14.9653H56.8415V12.2644L54.1406 8.02017H56.0698L57.6132 10.6246ZM49.9951 15.6405L49.7057 13.0361L50.8632 12.8432L52.6959 15.2547L54.6251 14.9653L52.503 12.3609C53.1782 11.8786 53.6605 11.2998 53.5641 10.2388C53.2747 8.50249 51.9243 8.21311 50.0915 8.50249L47.3906 8.88833L48.3552 15.8335L49.9951 15.6405ZM50.5738 11.4928L49.5127 11.5892L49.3198 10.1423L50.3809 9.94939C51.1526 9.85293 51.7313 9.85293 51.8278 10.5282C51.9243 11.2034 51.3455 11.3963 50.5738 11.4928ZM44.4964 16.991C42.3743 17.5697 40.7344 16.6051 40.1557 14.483C39.5769 12.3609 40.4451 10.6246 42.5672 10.0458C44.3035 9.56352 45.7504 10.3352 46.4256 11.7821L44.8822 12.2644C44.3999 11.3963 43.6282 11.2033 42.8566 11.3963C41.892 11.6856 41.4097 12.6503 41.7955 14.0007C42.1813 15.4476 43.1459 15.9299 44.1105 15.737C44.7858 15.5441 45.461 15.0618 45.3645 14.0007L46.9079 13.5184C47.1973 15.0618 46.2327 16.5087 44.4964 16.991ZM36.1024 20.1742L34.0768 15.737L38.6104 18.9202L40.4431 18.052L37.5493 11.6857L36.1024 12.3609L38.0316 16.7981L33.5945 13.6149L31.7617 14.483L34.6555 20.8494L36.1024 20.1742ZM29.9321 15.3511L30.7037 16.6051L27.617 18.5343L28.2922 19.5954L31.2825 17.6662L32.0542 18.9202L29.0639 20.8494L29.8356 22.0069L32.9223 19.9812L33.694 21.2352L29.1604 24.129L25.3984 18.2449L29.9321 15.3511ZM23.5627 23.2609L21.0547 25.4794L21.8264 26.444L24.4308 24.2255L23.5627 23.2609ZM20.5759 29.6273L21.7334 30.5919L18.4537 34.4503L13.1484 29.9166L14.2095 28.6627L18.4537 32.2317L20.5759 29.6273ZM12.3736 35.6078C11.9877 35.9936 11.6019 36.0901 11.3125 35.8972C10.9267 35.7043 10.9267 35.1255 11.3125 34.5467C11.6984 33.968 12.2771 33.6786 12.7594 33.8715L13.6276 32.5211C12.1807 31.8459 11.0231 32.6175 10.2514 33.7751C9.57623 34.9326 9.28685 36.5724 10.4444 37.3441C11.5054 38.0193 12.47 37.4405 13.3382 36.6689L13.9169 36.0901C14.4957 35.5113 14.978 35.1255 15.3638 35.4149C15.8461 35.8007 15.6532 36.3795 15.3638 36.8618C14.8815 37.537 14.2063 37.9228 13.4346 37.537L12.5665 38.8874C13.9169 39.5627 15.3638 39.0804 16.3284 37.537C17.1966 36.3795 17.293 34.6432 16.0391 33.8715C14.8815 33.0998 13.724 34.1609 12.9523 34.9326L12.3736 35.6078ZM8.8059 41.8777C8.51652 42.2635 8.13068 42.4564 7.8413 42.2635C7.45546 42.0706 7.45546 41.4918 7.74484 40.9131C8.03422 40.3343 8.51652 39.9485 9.09528 40.0449L9.77051 38.4051C8.3236 38.0193 7.26254 38.8874 6.58732 40.1414C5.9121 41.3954 5.9121 43.1317 7.16608 43.7104C8.3236 44.2892 9.2882 43.614 9.96343 42.6494L10.4457 41.9741C10.928 41.3954 11.4103 41.0095 11.7962 41.2024C12.3749 41.4918 12.2785 42.1671 11.9891 42.6494C11.6032 43.421 11.1209 43.8069 10.3493 43.614L9.57759 45.1573C11.0245 45.6396 12.3749 44.9644 13.1466 43.3246C13.8218 41.9741 13.7254 40.3343 12.3749 39.6591C11.0245 39.0803 10.0599 40.2379 9.38467 41.106L8.8059 41.8777ZM64.5606 12.9396C66.3933 13.1326 67.8402 12.8432 68.0331 11.0104C68.2261 9.1777 66.9721 8.59894 65.1393 8.40602L62.4384 8.11664L61.5703 15.0618L63.2101 15.2547L63.4995 12.8432L64.5606 12.9396ZM64.7535 11.4927L63.6924 11.3963L63.8854 9.56354L64.9464 9.66C65.7181 9.75646 66.2969 9.94938 66.2004 10.7211C66.1039 11.4927 65.5252 11.5892 64.7535 11.4927ZM68.9961 10.4316L69.3819 8.98474L75.3625 10.5281L74.9766 11.975L72.758 11.3962L71.4076 16.798L69.7678 16.4122L71.1182 11.0104L68.9961 10.4316ZM81.2474 14.2901L81.7297 12.9396L76.7138 11.1069L74.1094 17.5697L79.1253 19.4989L79.6076 18.1485L76.135 16.798L76.6173 15.4476L79.897 16.7016L80.4758 15.3511L77.2926 14.0971L77.7749 12.9396L81.2474 14.2901ZM87.3232 19.9813C85.9727 22.2963 84.0435 22.1998 82.0179 21.0423L79.9922 19.8848L83.4648 13.8078L85.4904 14.9653C87.4196 16.0264 88.6736 17.6662 87.3232 19.9813ZM84.2364 15.8335L82.1143 19.499L82.6931 19.7883C83.7541 20.3671 84.8152 20.6565 85.7798 19.1131C86.6479 17.4733 85.8763 16.7016 84.8152 16.1228L84.2364 15.8335ZM93.4011 23.7432L90.7002 21.621L89.832 22.6821L92.5329 24.8042L93.4011 23.7432ZM97.5474 33.8715L96.4864 32.6175L98.6085 30.6883L96.6793 28.5662L94.5572 30.4954L93.4961 29.2414L98.7049 24.6113L99.766 25.8653L97.7403 27.6981L99.6695 29.8202L101.695 27.9874L102.756 29.2414L97.5474 33.8715ZM103.914 30.8812L98.2227 35.029L99.1873 36.3795L104.878 32.2317L103.914 30.8812ZM107.1 40.1414C105.557 41.106 104.399 40.1414 103.531 38.598L103.049 37.7299L100.927 38.9839L100.059 37.537L106.039 33.968L107.39 36.283C108.354 37.8264 108.644 39.1768 107.1 40.1414ZM104.206 36.9582L104.785 37.9228C105.171 38.598 105.653 38.9839 106.232 38.6945C106.907 38.3087 106.714 37.7299 106.328 37.0547L105.75 36.0901L104.206 36.9582ZM105.555 48.6299L105.576 48.6099L106.037 50.2697L107.387 50.3662L108.063 52.9706L107.002 53.7423L107.484 55.4786L113.561 51.1379L112.982 49.3051L105.645 48.5429L110.957 43.4211L110.185 41.7812L102.758 42.0706L103.433 43.7105L104.783 43.614L105.845 46.122L104.88 46.9901L105.555 48.6299ZM109.028 43.3246L106.906 45.1574L106.23 43.5175L109.028 43.3246ZM109.317 52.2954L111.632 50.752L108.834 50.5591L109.317 52.2954ZM111.344 57.6972C109.125 57.8901 107.775 59.2405 107.967 61.4591C108.16 63.2919 109.318 64.4494 110.861 64.6423L110.765 63.0025C109.704 62.8096 109.414 62.0379 109.318 61.3627C109.221 60.3981 109.993 59.5299 111.44 59.4335C112.887 59.337 113.755 60.0122 113.852 60.9768C113.948 61.7485 113.562 62.4237 112.598 62.7131L112.694 64.3529C114.237 64.0635 115.298 62.7131 115.202 60.9768C115.009 58.7582 113.562 57.5043 111.344 57.6972ZM111.825 65.3175C114.043 65.5105 115.297 67.0538 115.201 69.1759C115.008 71.2981 113.464 72.6485 111.342 72.552C109.124 72.3591 107.87 70.8158 107.966 68.6936C108.159 66.5715 109.702 65.2211 111.825 65.3175ZM111.439 70.8158C112.886 70.9122 113.754 70.1405 113.85 69.0795C113.947 68.0184 113.175 67.1503 111.728 67.0538C110.281 66.9574 109.413 67.729 109.317 68.7901C109.317 69.8512 109.992 70.7193 111.439 70.8158ZM107.486 74.4812L112.888 75.8317L107.1 76.0246L106.714 77.568L111.827 80.3653L106.425 79.0149L106.039 80.5582L112.791 82.198L113.37 79.6901L108.836 77.1821L114.045 77.0856L114.624 74.5777L107.872 72.9379L107.486 74.4812ZM107.676 88.8538C105.94 88.1786 106.036 86.7316 106.712 85.0918L107.097 84.1272L104.879 83.1626L105.458 81.6193L111.92 84.3201L110.859 86.8281C110.281 88.4679 109.316 89.529 107.676 88.8538ZM107.966 85.5741C107.676 86.2493 107.58 86.9246 108.255 87.2139C108.93 87.5033 109.316 87.021 109.605 86.2493L109.991 85.2847L108.351 84.6095L107.966 85.5741ZM100.539 92.037L101.793 92.7122L103.433 89.9149L108.256 92.6158L109.028 91.1689L102.951 87.6963L100.539 92.037ZM100.058 92.6157L105.846 96.5706L104.881 97.921L99.0938 93.9662L100.058 92.6157ZM94.2695 99.9467L101.311 102.455L102.565 101.104L98.8996 94.5449L97.7421 95.8954L98.4173 97.0529L96.681 99.0786L95.427 98.5963L94.2695 99.9467ZM100.539 100.622L97.935 99.5609L99.0925 98.2104L100.539 100.622ZM95.9112 104.963L92.728 101.394L93.8855 100.333L98.5156 105.541L96.9722 106.892L91.6669 105.156L94.8501 108.725L93.6926 109.786L89.0625 104.577L90.6059 103.226L95.9112 104.963ZM92.6302 110.557L91.8586 109.4L89.9294 110.654L86.8426 106.024L85.4922 106.988L88.5789 111.618L86.7462 112.872L87.5179 114.03L92.6302 110.557Z" fill="black"/>
<path d="M79.3168 44.7715H36.9707C35.3309 44.7715 33.9805 46.1219 33.9805 47.7617V63.2918C33.9805 77.7609 43.9159 90.0113 58.0955 93.098C58.192 93.098 58.192 93.098 58.2884 93.098C58.3849 93.098 58.3849 93.098 58.4814 93.098C72.661 89.8184 82.4035 77.4715 82.307 63.0025V47.7617C82.307 46.1219 81.053 44.7715 79.3168 44.7715ZM80.3778 63.0025C80.4743 76.5069 71.407 88.0821 58.2884 91.1688C45.1699 88.1786 35.9097 76.7963 35.9097 63.2918V47.7617C35.9097 47.183 36.392 46.7007 36.9707 46.7007H79.3168C79.8955 46.7007 80.3778 47.183 80.3778 47.7617V63.0025ZM65.2336 59.144L65.1371 57.7936C65.1371 55.9609 64.3654 54.1281 63.015 52.8741C61.6645 51.5237 59.9283 50.8485 58.0955 50.8485C56.2628 50.8485 54.43 51.6202 53.176 52.9706C51.9221 54.321 51.1504 56.0573 51.1504 57.9865V59.337C49.5106 59.337 48.1601 60.6874 48.1601 62.3272L48.2566 74.1918C48.2566 75.8317 49.607 77.1821 51.2468 77.1821L65.4265 77.0856C66.1982 77.0856 66.9699 76.7963 67.5486 76.2175C68.1274 75.6387 68.4168 74.8671 68.4168 74.0954L68.3203 62.2308C68.2238 60.398 66.8734 59.144 65.2336 59.144ZM53.0796 57.7936C53.0796 56.4432 53.5619 55.1892 54.5265 54.2246C55.4911 53.26 56.7451 52.6812 58.0955 52.6812C59.446 52.6812 60.6999 53.1635 61.6645 54.1281C62.6291 55.0927 63.2079 56.3467 63.2079 57.6971V59.0476H52.9831V57.7936H53.0796ZM66.0053 74.6741C65.8123 74.8671 65.523 74.9635 65.2336 74.9635L51.1504 75.06C50.5716 75.06 50.0893 74.5777 50.0893 73.9989L49.9929 62.1343C49.9929 61.5556 50.4752 61.0733 51.0539 61.0733L65.1371 60.9768C65.7159 60.9768 66.1982 61.4591 66.1982 62.0379L66.2946 73.9025C66.2946 74.1918 66.1982 74.4812 66.0053 74.6741ZM58.192 64.5458C56.2628 64.5458 54.7194 66.0892 54.7194 68.0184C54.7194 69.9476 56.2628 71.491 58.192 71.491C60.1212 71.491 61.6645 69.9476 61.6645 68.0184C61.6645 66.0892 60.1212 64.5458 58.192 64.5458ZM58.192 69.5618C57.3238 69.5618 56.6486 68.8865 56.6486 68.0184C56.6486 67.1502 57.3238 66.475 58.192 66.475C59.0601 66.475 59.7353 67.1502 59.7353 68.0184C59.7353 68.8865 59.0601 69.5618 58.192 69.5618Z" fill="black"/>
</svg>
