<?xml version="1.0" standalone="no"?>
<!DOCTYPE svg PUBLIC "-//W3C//DTD SVG 20010904//EN"
 "http://www.w3.org/TR/2001/REC-SVG-20010904/DTD/svg10.dtd">
<svg version="1.0" xmlns="http://www.w3.org/2000/svg"
 width="512.000000pt" height="512.000000pt" viewBox="0 0 512.000000 512.000000"
 preserveAspectRatio="xMidYMid meet">
<metadata>
Created by potrace 1.11, written by Peter Selinger 2001-2013
</metadata>
<g transform="translate(0.000000,512.000000) scale(0.100000,-0.100000)"
fill="#000000" stroke="none">
<path d="M2220 3939 c-93 -14 -117 -19 -193 -38 -360 -93 -695 -360 -871 -694
-47 -88 -112 -253 -121 -308 -3 -19 -10 -50 -15 -69 -29 -113 -33 -374 -6
-515 63 -334 236 -628 492 -835 67 -53 200 -144 213 -145 3 -1 33 -15 66 -32
61 -31 213 -88 263 -98 147 -30 214 -37 337 -38 77 0 160 3 185 7 25 4 60 9
79 12 19 2 37 6 41 9 4 2 20 6 37 9 52 10 181 55 256 90 86 41 139 91 175 166
23 46 27 68 27 135 -1 67 -5 89 -29 135 -36 72 -75 111 -144 146 -46 24 -71
29 -135 31 -68 2 -87 -2 -155 -31 -306 -131 -624 -80 -853 136 -116 109 -205
280 -226 430 -56 403 201 770 599 853 147 31 296 15 459 -51 114 -45 187 -51
271 -23 32 10 68 27 79 37 54 44 84 81 106 129 76 166 6 347 -168 429 -61 29
-167 70 -206 79 -10 3 -38 9 -63 16 -150 37 -362 49 -500 28z"/>
<path d="M3825 1987 c-238 -79 -351 -327 -245 -542 145 -295 557 -293 702 3
30 61 33 74 32 162 0 78 -5 105 -24 150 -13 30 -29 60 -35 67 -5 6 -20 25 -33
42 -27 35 -111 92 -162 110 -52 19 -188 23 -235 8z"/>
</g>
</svg>
